<?xml version="1.0" encoding="UTF-8"?>
<svg version="1.1" xmlns="http://www.w3.org/2000/svg" width="1047" height="298">
<path d="M0 0 C1.30385399 -0.00043808 1.30385399 -0.00043808 2.63404846 -0.00088501 C5.48009557 0.00049779 8.32587416 0.01600916 11.171875 0.03173828 C13.15584164 0.03547215 15.13981014 0.03831735 17.1237793 0.04031372 C22.32530886 0.04792075 27.52672532 0.06754391 32.72821045 0.08972168 C38.9799923 0.1138566 45.23181214 0.12297505 51.48362732 0.1346283 C60.96312168 0.15397012 70.44236826 0.19231318 79.921875 0.22705078 C80.251875 15.73705078 80.581875 31.24705078 80.921875 47.22705078 C90.14329233 34.48254811 90.14329233 34.48254811 99.171875 21.60205078 C107.72241105 9.67267388 116.73297113 3.77427675 130.921875 0.22705078 C160.291875 0.22705078 189.661875 0.22705078 219.921875 0.22705078 C219.921875 97.57705078 219.921875 194.92705078 219.921875 295.22705078 C200.121875 295.22705078 180.321875 295.22705078 159.921875 295.22705078 C159.921875 217.34705078 159.921875 139.46705078 159.921875 59.22705078 C155.301875 59.22705078 150.681875 59.22705078 145.921875 59.22705078 C145.261875 60.54705078 144.601875 61.86705078 143.921875 63.22705078 C142.04314567 66.19691986 140.03630734 69.08042578 138.046875 71.97705078 C137.46824707 72.82178955 136.88961914 73.66652832 136.29345703 74.53686523 C132.11006953 80.60237848 127.76149032 86.51753564 123.30102539 92.38085938 C119.41426759 97.51079164 115.75066748 102.76673695 112.1340332 108.08935547 C108.13912372 113.95378281 103.99721053 119.70370609 99.82836914 125.4453125 C95.64791461 131.20741041 91.53232393 137.01214809 87.43945312 142.83666992 C83.83354837 147.95901594 80.16790469 153.03533834 76.484375 158.10205078 C71.99639431 164.27863839 67.64045653 170.53050157 63.359375 176.85205078 C58.89796845 183.43707884 54.26456343 189.84170408 49.44335938 196.16674805 C44.9895419 202.04786478 40.8446859 208.1191301 36.70922852 214.2265625 C32.92611191 219.79959553 29.02134634 225.26034149 25.01098633 230.67138672 C21.62330219 235.24870944 18.31976117 239.87954111 15.046875 244.53955078 C10.88226857 250.467744 6.67342791 256.36089592 2.421875 262.22705078 C-2.84828806 269.50192706 -8.05624601 276.8184235 -13.2265625 284.16455078 C-13.67091141 284.76788239 -14.11526031 285.37121399 -14.57307434 285.99282837 C-16.14717992 288.21329884 -16.14717992 288.21329884 -17.30241394 290.77694702 C-18.9501343 293.85860557 -20.42531349 295.93183094 -23.078125 298.22705078 C-28.63459445 299.64181286 -34.03424573 299.39580522 -39.73046875 299.20361328 C-41.35709776 299.18494225 -42.98378334 299.17071695 -44.61048889 299.16073608 C-48.87486342 299.12270434 -53.1357857 299.0246239 -57.39880371 298.91369629 C-61.7556284 298.81106082 -66.11301582 298.76565637 -70.47070312 298.71533203 C-79.00808801 298.60835253 -87.54267612 298.43788288 -96.078125 298.22705078 C-94.4024111 293.76163793 -92.0709889 290.25432283 -89.203125 286.47705078 C-88.20174764 285.13562997 -87.20179869 283.79314191 -86.203125 282.44970703 C-85.68621094 281.75506348 -85.16929687 281.06041992 -84.63671875 280.34472656 C-82.10547307 276.90549959 -79.65438722 273.41101919 -77.203125 269.91455078 C-73.0668532 264.02209279 -68.87467835 258.17458838 -64.640625 252.35205078 C-60.15256574 246.175521 -55.79671884 239.92358827 -51.515625 233.60205078 C-47.00582078 226.94588 -42.3221503 220.46791444 -37.45458984 214.06982422 C-33.56727722 208.93882772 -29.90303627 203.68186027 -26.28588867 198.3581543 C-22.86381031 193.33435569 -19.3396711 188.39371092 -15.765625 183.47705078 C-10.53900668 176.28471367 -5.41924555 169.02405243 -0.33789062 161.72851562 C4.3400957 155.02523948 9.10710061 148.38985127 13.92382812 141.78564453 C14.43494141 141.08310547 14.94605469 140.38056641 15.47265625 139.65673828 C15.92294189 139.04040527 16.37322754 138.42407227 16.8371582 137.7890625 C19.25362538 134.30930626 19.09319624 131.21579334 19.12719727 127.11523438 C19.13709686 126.38342453 19.14699646 125.65161469 19.15719604 124.89762878 C19.18883699 122.4736151 19.21357866 120.0495818 19.23828125 117.62548828 C19.25884854 115.94682296 19.27984495 114.26816285 19.30125427 112.58950806 C19.35649818 108.16723847 19.40589721 103.74492197 19.45410156 99.3225708 C19.50429967 94.81152156 19.55999455 90.3005406 19.61523438 85.78955078 C19.7228443 76.93544242 19.82428297 68.08127482 19.921875 59.22705078 C17.66673663 59.30242019 15.41240231 59.40213077 13.15869141 59.51220703 C11.27556747 59.59160522 11.27556747 59.59160522 9.35440063 59.67260742 C5.67573925 60.26680819 4.4957679 60.87369043 2.1328125 63.66455078 C1.14136553 65.155719 0.19732946 66.6792357 -0.703125 68.22705078 C-1.77840535 69.88345692 -2.85393186 71.53970328 -3.9296875 73.19580078 C-4.71520996 74.46037109 -4.71520996 74.46037109 -5.51660156 75.75048828 C-7.89039484 79.51530363 -10.48509123 83.11155022 -13.078125 86.72705078 C-14.0712299 88.1365611 -15.06341253 89.54672167 -16.0546875 90.95751953 C-19.15131879 95.34458175 -22.29973616 99.69319315 -25.453125 104.03955078 C-30.05947651 110.39123451 -34.59158355 116.79021697 -39.078125 123.22705078 C-44.09109062 130.4191445 -49.17602973 137.55310862 -54.32421875 144.64892578 C-58.45263305 150.34432945 -62.5169256 156.0823481 -66.5612793 161.83764648 C-70.69339388 167.70767387 -74.90632262 173.51672571 -79.13037109 179.32080078 C-83.85674153 185.84816711 -88.39394459 192.49852563 -92.85327148 199.2109375 C-93.36317627 199.96906738 -93.87308105 200.72719727 -94.3984375 201.50830078 C-95.06770264 202.51473633 -95.06770264 202.51473633 -95.75048828 203.54150391 C-97.078125 205.22705078 -97.078125 205.22705078 -100.078125 207.22705078 C-99.91957031 206.71400391 -99.76101563 206.20095703 -99.59765625 205.67236328 C-98.74129008 202.86196823 -97.90765602 200.04549672 -97.078125 197.22705078 C-96.87993164 196.55689941 -96.68173828 195.88674805 -96.47753906 195.19628906 C-87.80430476 165.67164902 -87.24783839 137.35226849 -95.0546875 107.57080078 C-96.96243511 99.72180557 -96.96243511 99.72180557 -95.12109375 96.609375 C-93.73423722 94.65223715 -92.26798419 92.78444775 -90.765625 90.91455078 C-89.65091047 89.4804749 -88.53899667 88.04421823 -87.4296875 86.60595703 C-86.86540039 85.87650879 -86.30111328 85.14706055 -85.71972656 84.39550781 C-83.24396379 81.12517394 -80.93709349 77.74961817 -78.640625 74.35205078 C-74.25345848 67.8909654 -69.72534538 61.54644517 -65.13183594 55.23071289 C-61.59555651 50.35763638 -58.12280514 45.44524568 -54.6875 40.50048828 C-26.38110991 -0.2360992 -26.38110991 -0.2360992 0 0 Z " fill="#5264EA" transform="translate(827.078125,-0.22705078125)"/>
<path d="M0 0 C28.32878772 24.63474498 46.1622635 58.25445963 50.77490234 95.54345703 C51.67942381 114.32007503 51.90081079 133.33360878 46.77490234 151.54345703 C46.45344238 152.70651367 46.45344238 152.70651367 46.12548828 153.89306641 C42.93745173 165.07671719 38.3824402 175.37594333 32.77490234 185.54345703 C32.42556641 186.18412109 32.07623047 186.82478516 31.71630859 187.48486328 C26.40824559 197.10937313 20.25042137 205.49601433 12.77490234 213.54345703 C12.2423584 214.1198291 11.70981445 214.69620117 11.16113281 215.29003906 C-13.1484767 241.30409096 -47.82054238 259.81258491 -83.8359375 261.73632812 C-128.9788419 262.6809799 -167.77229272 252.21351061 -201.22509766 220.54345703 C-202.10939453 219.72361328 -202.99369141 218.90376953 -203.90478516 218.05908203 C-230.31808488 192.76816049 -245.86559799 156.23563265 -246.6809845 119.81044006 C-246.96460953 99.83763329 -245.07382884 81.40839015 -238.22509766 62.54345703 C-237.85408936 61.51720215 -237.85408936 61.51720215 -237.47558594 60.47021484 C-223.65475961 23.0420637 -195.07404443 -6.72467109 -159.01464844 -23.48388672 C-106.11961776 -46.95613023 -43.94001335 -37.07173178 0 0 Z M-164.03759766 53.35595703 C-181.14498674 73.51596572 -188.35927049 97.19406222 -186.22509766 123.54345703 C-183.20236748 147.69664701 -170.6873075 169.12132543 -151.60009766 184.23095703 C-131.27548258 198.77087397 -107.77373701 204.28507286 -82.97509766 201.08251953 C-59.22359533 196.80523627 -38.33061805 183.48811178 -24.32275391 163.83642578 C-11.19950736 143.23512813 -5.64075481 119.48991932 -10.40332031 95.25195312 C-15.92218585 70.64194006 -30.36994585 50.32451577 -51.65185547 36.77099609 C-88.41170205 14.37077026 -134.90519214 22.76943833 -164.03759766 53.35595703 Z " fill="#5264EA" transform="translate(673.22509765625,35.45654296875)"/>
<path d="M0 0 C25.77213826 -0.12032643 25.77213826 -0.12032643 36.84960938 -0.14648438 C44.37628613 -0.16434253 51.90285227 -0.18535347 59.42944336 -0.22631836 C65.50490587 -0.25917419 71.58024957 -0.27690779 77.65579414 -0.28463173 C79.96115549 -0.29012853 82.26651114 -0.30086081 84.57182121 -0.31719017 C101.38527572 -0.43143198 116.96233675 0.72380594 133.125 5.75 C133.96063477 6.00676514 134.79626953 6.26353027 135.65722656 6.52807617 C143.47291811 9.01250967 150.7406527 12.20924331 158 16 C158.63856934 16.32307129 159.27713867 16.64614258 159.93505859 16.97900391 C182.64097698 28.5360424 200.5397488 46.24779801 215 67 C215.69867188 67.98742187 216.39734375 68.97484375 217.1171875 69.9921875 C221.0584361 75.96762892 221.0584361 75.96762892 220.8125 80.3125 C219.95555698 84.20170294 218.68561108 87.76454809 217.1875 91.4375 C202.84983503 128.18959981 204.69855212 168.0207187 217.53515625 204.81640625 C217.76654297 205.50202637 217.99792969 206.18764648 218.23632812 206.89404297 C218.98350053 209.04266545 218.98350053 209.04266545 220.01367188 211.21923828 C221.37468157 214.42842154 222.35294792 216.75038866 221.38208008 220.18774414 C220.19545516 222.51212834 218.86115616 224.60487668 217.375 226.75 C216.60700073 227.92224121 216.60700073 227.92224121 215.82348633 229.11816406 C211.07171151 236.22288668 205.83871071 242.76773243 200 249 C199.47035645 249.57202148 198.94071289 250.14404297 198.39501953 250.73339844 C173.12428486 277.78230744 137.9327099 295.52131145 100.6545105 297.43252563 C94.1525057 297.62841833 87.65581815 297.56656658 81.15234375 297.48828125 C79.05310741 297.48089657 76.95386172 297.47581627 74.85461426 297.47302246 C67.21543244 297.44719319 59.57644986 297.37739162 51.9375 297.3125 C34.798125 297.209375 17.65875 297.10625 0 297 C0 237.6 0 178.2 0 117 C15.86363513 117 33.51156133 120.88679576 45.484375 132.28515625 C54.15453343 142.0949489 59.17776888 152.68785983 59.11352539 165.79785156 C59.11367142 166.57872131 59.11381744 167.35959106 59.1139679 168.16412354 C59.11327242 170.73965249 59.10549712 173.31510871 59.09765625 175.890625 C59.09579077 177.67852743 59.09436748 179.46643037 59.09336853 181.2543335 C59.08955357 185.95610978 59.07973198 190.65785508 59.06866455 195.35961914 C59.05842849 200.15901266 59.0538662 204.9584112 59.04882812 209.7578125 C59.03810881 219.1718886 59.02104463 228.58594172 59 238 C63.09173633 237.87413001 67.18336916 237.74531698 71.27493286 237.61395264 C72.66248152 237.56979761 74.05005458 237.5264018 75.43765259 237.48382568 C106.61169758 236.52514332 133.40333812 230.63178175 155.8125 207.25 C172.51262284 187.62657819 178.947156 163.42333483 177 138 C174.60147357 116.02249093 163.29297327 94.9031622 146.30859375 80.734375 C122.37321114 62.75246319 97.43522298 59.93842443 68.45703125 59.68359375 C66.47734683 59.66298738 64.49766644 59.64199004 62.51799011 59.62062073 C57.34125056 59.56577994 52.16447385 59.51620527 46.9876709 59.46777344 C40.75827782 59.40837974 34.52895174 59.34236362 28.29961395 59.27747345 C18.86645068 59.17994295 9.43324178 59.09075995 0 59 C0 39.53 0 20.06 0 0 Z " fill="#5264EA" transform="translate(0,0)"/>
<path d="M0 0 C0.72810883 0.00215515 1.45621765 0.0043103 2.20639038 0.00653076 C12.99192989 0.05773754 23.28637663 0.47190348 33.75 3.3125 C34.53584473 3.51649414 35.32168945 3.72048828 36.13134766 3.93066406 C56.33621994 9.25814334 76.42691187 18.0499909 92.75 31.3125 C90.6157451 35.1679282 88.1721906 38.13955233 85.125 41.3125 C74.01901723 53.38562206 65.95524182 67.65277843 58.75 82.3125 C58.31171875 81.96058594 57.8734375 81.60867187 57.421875 81.24609375 C36.96502719 65.32135247 13.38249995 58.81968946 -12.36083984 61.53515625 C-35.37938224 64.8936284 -56.33761078 77.44005622 -70.42260742 95.77001953 C-84.44047032 114.97747423 -89.76827377 138.2695587 -86.94970703 161.82177734 C-83.29990284 184.45986219 -71.72671082 204.65239522 -53.6875 218.9375 C-33.32963541 233.55273951 -9.93140697 238.91871015 14.9296875 235.88671875 C29.08881625 233.405065 46.28353144 227.30559101 56.3828125 216.578125 C57.75 215.3125 57.75 215.3125 60.75 215.3125 C61.22308594 216.24449219 61.69617188 217.17648438 62.18359375 218.13671875 C70.84908136 234.94607778 81.96579809 249.40376181 94.75 263.3125 C75.53716517 284.51286947 41.40942064 296.00510716 13.55273438 297.58300781 C-3.8978748 298.36279285 -21.33827304 298.07299898 -38.25 293.3125 C-39.02537109 293.09819336 -39.80074219 292.88388672 -40.59960938 292.66308594 C-51.78326016 289.47504939 -62.0824863 284.92003786 -72.25 279.3125 C-72.89066406 278.96316406 -73.53132813 278.61382812 -74.19140625 278.25390625 C-83.8159161 272.94584324 -92.20255729 266.78801903 -100.25 259.3125 C-101.11455811 258.51368408 -101.11455811 258.51368408 -101.99658203 257.69873047 C-127.88141841 233.50987027 -146.81558298 198.62817676 -148.41113281 162.68237305 C-148.90851317 116.98410678 -138.55039733 77.85014882 -106.3046875 43.96435547 C-78.05387645 15.15137862 -40.20865184 -0.21467268 0 0 Z " fill="#5264EA" transform="translate(368.25,-0.3125)"/>
</svg>
